<mxfile host="65bd71144e">
    <diagram name="Page-1" id="Os9D_q9ZTiycslfnQTE_">
        <mxGraphModel dx="557" dy="712" grid="1" gridSize="10" guides="1" tooltips="1" connect="1" arrows="1" fold="1" page="1" pageScale="1" pageWidth="1169" pageHeight="827" math="1" shadow="0">
            <root>
                <mxCell id="0"/>
                <mxCell id="1" parent="0"/>
                <mxCell id="2" value="" style="endArrow=classic;html=1;fillColor=#f8cecc;strokeColor=#b85450;" edge="1" parent="1">
                    <mxGeometry width="50" height="50" relative="1" as="geometry">
                        <mxPoint x="360" y="400" as="sourcePoint"/>
                        <mxPoint x="360" y="320" as="targetPoint"/>
                    </mxGeometry>
                </mxCell>
                <mxCell id="3" value="" style="endArrow=classic;html=1;fillColor=#d5e8d4;strokeColor=#82b366;" edge="1" parent="1">
                    <mxGeometry width="50" height="50" relative="1" as="geometry">
                        <mxPoint x="360" y="400" as="sourcePoint"/>
                        <mxPoint x="280" y="400" as="targetPoint"/>
                    </mxGeometry>
                </mxCell>
                <mxCell id="4" value="$$x$$" style="text;html=1;align=center;verticalAlign=middle;whiteSpace=wrap;rounded=0;" vertex="1" parent="1">
                    <mxGeometry x="330" y="290" width="60" height="30" as="geometry"/>
                </mxCell>
                <mxCell id="5" value="$$y$$" style="text;html=1;align=center;verticalAlign=middle;whiteSpace=wrap;rounded=0;" vertex="1" parent="1">
                    <mxGeometry x="230" y="384" width="60" height="30" as="geometry"/>
                </mxCell>
                <mxCell id="6" value="$$r_4$$" style="ellipse;whiteSpace=wrap;html=1;aspect=fixed;" vertex="1" parent="1">
                    <mxGeometry x="230" y="270" width="50" height="50" as="geometry"/>
                </mxCell>
                <mxCell id="7" value="$$r_2$$" style="ellipse;whiteSpace=wrap;html=1;aspect=fixed;" vertex="1" parent="1">
                    <mxGeometry x="440" y="270" width="50" height="50" as="geometry"/>
                </mxCell>
                <mxCell id="8" value="$$r_3$$" style="ellipse;whiteSpace=wrap;html=1;aspect=fixed;" vertex="1" parent="1">
                    <mxGeometry x="230" y="480" width="50" height="50" as="geometry"/>
                </mxCell>
                <mxCell id="9" value="$$r_1$$" style="ellipse;whiteSpace=wrap;html=1;aspect=fixed;" vertex="1" parent="1">
                    <mxGeometry x="440" y="480" width="50" height="50" as="geometry"/>
                </mxCell>
                <mxCell id="10" value="" style="curved=1;endArrow=classic;html=1;fillColor=#fff2cc;strokeColor=#d6b656;" edge="1" parent="1">
                    <mxGeometry width="50" height="50" relative="1" as="geometry">
                        <mxPoint x="460" y="540" as="sourcePoint"/>
                        <mxPoint x="460" y="470" as="targetPoint"/>
                        <Array as="points">
                            <mxPoint x="430" y="530"/>
                            <mxPoint x="430" y="480"/>
                        </Array>
                    </mxGeometry>
                </mxCell>
                <mxCell id="13" value="" style="curved=1;endArrow=classic;html=1;fillColor=#fff2cc;strokeColor=#d6b656;" edge="1" parent="1">
                    <mxGeometry width="50" height="50" relative="1" as="geometry">
                        <mxPoint x="260" y="540" as="sourcePoint"/>
                        <mxPoint x="260" y="470" as="targetPoint"/>
                        <Array as="points">
                            <mxPoint x="290" y="530"/>
                            <mxPoint x="290" y="480"/>
                        </Array>
                    </mxGeometry>
                </mxCell>
                <mxCell id="14" value="" style="curved=1;endArrow=none;html=1;fillColor=#f8cecc;strokeColor=#b85450;startArrow=classic;startFill=1;endFill=0;" edge="1" parent="1">
                    <mxGeometry width="50" height="50" relative="1" as="geometry">
                        <mxPoint x="470" y="330" as="sourcePoint"/>
                        <mxPoint x="470" y="260" as="targetPoint"/>
                        <Array as="points">
                            <mxPoint x="500" y="320"/>
                            <mxPoint x="500" y="270"/>
                        </Array>
                    </mxGeometry>
                </mxCell>
                <mxCell id="15" value="" style="curved=1;endArrow=none;html=1;fillColor=#f8cecc;strokeColor=#b85450;startArrow=classic;startFill=1;endFill=0;" edge="1" parent="1">
                    <mxGeometry width="50" height="50" relative="1" as="geometry">
                        <mxPoint x="250" y="330" as="sourcePoint"/>
                        <mxPoint x="250" y="260" as="targetPoint"/>
                        <Array as="points">
                            <mxPoint x="220" y="320"/>
                            <mxPoint x="220" y="270"/>
                        </Array>
                    </mxGeometry>
                </mxCell>
                <mxCell id="16" value="$$\omega_4$$" style="text;html=1;align=center;verticalAlign=middle;whiteSpace=wrap;rounded=0;" vertex="1" parent="1">
                    <mxGeometry x="280" y="280" width="60" height="30" as="geometry"/>
                </mxCell>
                <mxCell id="17" value="$$\omega_2$$" style="text;html=1;align=center;verticalAlign=middle;whiteSpace=wrap;rounded=0;" vertex="1" parent="1">
                    <mxGeometry x="380" y="280" width="60" height="30" as="geometry"/>
                </mxCell>
                <mxCell id="18" value="$$\omega_3$$" style="text;html=1;align=center;verticalAlign=middle;whiteSpace=wrap;rounded=0;" vertex="1" parent="1">
                    <mxGeometry x="270" y="490" width="60" height="30" as="geometry"/>
                </mxCell>
                <mxCell id="19" value="$$\omega_1$$" style="text;html=1;align=center;verticalAlign=middle;whiteSpace=wrap;rounded=0;" vertex="1" parent="1">
                    <mxGeometry x="390" y="490" width="60" height="30" as="geometry"/>
                </mxCell>
                <mxCell id="20" value="" style="curved=1;endArrow=none;html=1;fillColor=#fff2cc;strokeColor=#d6b656;startArrow=classic;startFill=1;endFill=0;" edge="1" parent="1">
                    <mxGeometry width="50" height="50" relative="1" as="geometry">
                        <mxPoint x="460" y="330" as="sourcePoint"/>
                        <mxPoint x="460" y="260" as="targetPoint"/>
                        <Array as="points">
                            <mxPoint x="430" y="320"/>
                            <mxPoint x="430" y="270"/>
                        </Array>
                    </mxGeometry>
                </mxCell>
                <mxCell id="21" value="" style="curved=1;endArrow=none;html=1;fillColor=#fff2cc;strokeColor=#d6b656;startArrow=classic;startFill=1;endFill=0;" edge="1" parent="1">
                    <mxGeometry width="50" height="50" relative="1" as="geometry">
                        <mxPoint x="260" y="330" as="sourcePoint"/>
                        <mxPoint x="260" y="260" as="targetPoint"/>
                        <Array as="points">
                            <mxPoint x="290" y="320"/>
                            <mxPoint x="290" y="270"/>
                        </Array>
                    </mxGeometry>
                </mxCell>
                <mxCell id="22" value="$$\tau_4$$" style="text;html=1;align=center;verticalAlign=middle;whiteSpace=wrap;rounded=0;" vertex="1" parent="1">
                    <mxGeometry x="170" y="280" width="60" height="30" as="geometry"/>
                </mxCell>
                <mxCell id="23" value="$$\tau_2$$" style="text;html=1;align=center;verticalAlign=middle;whiteSpace=wrap;rounded=0;" vertex="1" parent="1">
                    <mxGeometry x="490" y="280" width="60" height="30" as="geometry"/>
                </mxCell>
                <mxCell id="24" value="" style="curved=1;endArrow=classic;html=1;fillColor=#f8cecc;strokeColor=#b85450;" edge="1" parent="1">
                    <mxGeometry width="50" height="50" relative="1" as="geometry">
                        <mxPoint x="250" y="540" as="sourcePoint"/>
                        <mxPoint x="250" y="470" as="targetPoint"/>
                        <Array as="points">
                            <mxPoint x="220" y="530"/>
                            <mxPoint x="220" y="480"/>
                        </Array>
                    </mxGeometry>
                </mxCell>
                <mxCell id="25" value="" style="curved=1;endArrow=classic;html=1;fillColor=#f8cecc;strokeColor=#b85450;" edge="1" parent="1">
                    <mxGeometry width="50" height="50" relative="1" as="geometry">
                        <mxPoint x="470" y="540" as="sourcePoint"/>
                        <mxPoint x="470" y="470" as="targetPoint"/>
                        <Array as="points">
                            <mxPoint x="500" y="530"/>
                            <mxPoint x="500" y="480"/>
                        </Array>
                    </mxGeometry>
                </mxCell>
                <mxCell id="26" value="$$\tau_3$$" style="text;html=1;align=center;verticalAlign=middle;whiteSpace=wrap;rounded=0;" vertex="1" parent="1">
                    <mxGeometry x="180" y="490" width="60" height="30" as="geometry"/>
                </mxCell>
                <mxCell id="27" value="$$\tau_1$$" style="text;html=1;align=center;verticalAlign=middle;whiteSpace=wrap;rounded=0;" vertex="1" parent="1">
                    <mxGeometry x="480" y="490" width="60" height="30" as="geometry"/>
                </mxCell>
                <mxCell id="28" value="" style="endArrow=none;html=1;entryX=0;entryY=1;entryDx=0;entryDy=0;dashed=1;" edge="1" parent="1" source="8" target="7">
                    <mxGeometry width="50" height="50" relative="1" as="geometry">
                        <mxPoint x="340" y="370" as="sourcePoint"/>
                        <mxPoint x="390" y="320" as="targetPoint"/>
                    </mxGeometry>
                </mxCell>
                <mxCell id="29" value="" style="endArrow=none;html=1;entryX=1;entryY=1;entryDx=0;entryDy=0;exitX=0;exitY=0;exitDx=0;exitDy=0;dashed=1;" edge="1" parent="1" source="9" target="6">
                    <mxGeometry width="50" height="50" relative="1" as="geometry">
                        <mxPoint x="420" y="480" as="sourcePoint"/>
                        <mxPoint x="457" y="323" as="targetPoint"/>
                    </mxGeometry>
                </mxCell>
            </root>
        </mxGraphModel>
    </diagram>
</mxfile>